<svg xmlns="http://www.w3.org/2000/svg" id="logo-svg" width="200" height="200" viewBox="0 0 200 200" style="overflow: visible;"><defs><linearGradient id="gradient" x1="0%" y1="0%" x2="100%" y2="100%"><stop offset="0%" style="stop-color: rgb(0, 0, 0); stop-opacity: 1;"/><stop offset="100%" style="stop-color: rgb(255, 255, 255); stop-opacity: 1;"/></linearGradient><filter id="shadow" x="-100%" y="-100%" width="300%" height="300%" filterUnits="objectBoundingBox"/></defs><rect x="0" y="0" width="200" height="200" fill="#000000" rx="20" ry="20"/><g transform="translate(68 68)"><svg xmlns="http://www.w3.org/2000/svg" width="64" height="64" viewBox="0 0 24 24" fill="#ffffff" stroke="#ffffff" stroke-width="2.5" stroke-linecap="round" stroke-linejoin="round" class="lucide lucide-map" fill-opacity="0"><path d="M14.106 5.553a2 2 0 0 0 1.788 0l3.659-1.83A1 1 0 0 1 21 4.619v12.764a1 1 0 0 1-.553.894l-4.553 2.277a2 2 0 0 1-1.788 0l-4.212-2.106a2 2 0 0 0-1.788 0l-3.659 1.83A1 1 0 0 1 3 19.381V6.618a1 1 0 0 1 .553-.894l4.553-2.277a2 2 0 0 1 1.788 0z"/><path d="M15 5.764v15"/><path d="M9 3.236v15"/></svg></g></svg>